<svg id="Layer_1" data-name="Layer 1" xmlns="http://www.w3.org/2000/svg" viewBox="0 0 149.43 149.57"><path d="M75,149.78H19.75c-1.73,0-3.48,0-5.21-.2A15.44,15.44,0,0,1,.37,134.81c0-.87,0-1.74,0-2.61,0-27.49,0-55-.06-82.46a7.69,7.69,0,0,1,3.35-6.87C17.57,32.23,31.55,21.62,45.18,10.6c17.2-13.9,42.52-13.73,59.38-.18,14,11.21,28.22,22,42.43,32.95A6.37,6.37,0,0,1,149.71,49q-.09,41.79,0,83.58c0,6.16-2,11.29-7.32,14.6a19.79,19.79,0,0,1-6.22,2.24,29.43,29.43,0,0,1-6,.31Q102.59,149.8,75,149.78Zm0-58.71L12.86,142.21l.28.86c1.55.11,3.09.32,4.64.32q57.29,0,114.56,0a17.31,17.31,0,0,0,2.6-.06,18.76,18.76,0,0,0,2.71-.89ZM30.36,67.61l.55-.4c-.15-.7-.26-1.41-.45-2.1C29,59.72,27.44,54.34,26,48.93c-.85-3.22-.21-4.27,3-5.09s6.31-1.38,9.46-2.11c1.77-.41,3.51-.94,5.43-1.45,0-3.42,0-6.52,0-9.61,0-4.77.67-5.43,5.4-5.43q25.75,0,51.51,0c4.49,0,5.18.73,5.23,5.22,0,3.22,0,6.43,0,9.69,1.25.38,2.17.72,3.12.94,3.51.82,7,1.59,10.55,2.4,4.65,1.07,5.13,1.86,3.9,6.41-1.29,4.8-2.62,9.59-3.91,14.39-.27,1-.46,2.06-.69,3.09l.52.3,22-20.32c-.87-.78-1.48-1.38-2.14-1.9-13.36-10.38-26.69-20.8-40.11-31.1a31.87,31.87,0,0,0-7.68-4.53c-14.71-5.65-28.8-4.76-41.63,5-13.16,10-26.15,20.27-39.21,30.43-.77.59-1.44,1.29-2.36,2.12ZM94.92,99c6.89,6.84,45.2,37.76,47.66,38.53,1-3.43,1.2-78.94.11-82.77ZM7.05,54.51c-.19,1.54-.38,2.35-.38,3.17q0,37.67,0,75.35a49.33,49.33,0,0,0,.7,5.53L55.3,99.19Zm43.53-4.19c-.19.33-.3.44-.31.55-.05,11.19-.12,22.38-.11,33.57a3.5,3.5,0,0,0,1,2.28c2.93,2.84,6,5.57,9.09,8.46l4.67-4c-10-9.53-11.23-20.16-3.6-28.5a18.38,18.38,0,0,1,25.85-1.56,18,18,0,0,1,6.44,12.23c.68,7.44-2.52,13.19-8.64,17.75l4.93,4c2.76-2.52,5.15-4.88,7.73-7A6.32,6.32,0,0,0,100,82.6c-.11-9.58,0-19.16,0-28.74,0-1.19-.15-2.39-.21-3.43-11.14-3.53-14.1-6.5-18.92-18.79H69C66.6,41.74,60.45,48.06,50.58,50.32ZM70.24,86.66c4.67-3.24,4.67-3.24,9.46-.12,5.53-1.43,8.53-8.54,7.42-13.71A12.34,12.34,0,0,0,75.7,62.88a12.52,12.52,0,0,0-12.6,9C61.51,78.09,64.13,83.62,70.24,86.66Zm35.83-39.82c.12,11.06-.17,21.7.19,32.67a8.34,8.34,0,0,0,4.49-5.78c1.54-6,3.25-12,4.88-17.94.55-2,1.06-4,1.67-6.35ZM33,49.38a12.76,12.76,0,0,0,.15,1.8c2.19,8,4.43,16,6.59,24,.53,2,2,2.92,3.53,4.07.88-3.2,1-28.58.08-32.29Zm17.36-6c6.42-1.19,11-5.93,11.6-11.75H50.35Zm49.43-.12a66.55,66.55,0,0,0-.11-11.56H87.93C89.27,38.2,93.84,42.69,99.78,43.27Z" transform="translate(-0.29 -0.21)"/></svg>