<svg id="Layer_1" data-name="Layer 1" xmlns="http://www.w3.org/2000/svg" viewBox="0 0 115.11 146.14"><path d="M130.07,92.88c.14,30.17-24.85,55.23-55,55.19a55.27,55.27,0,0,1-55-54.85C19.79,63.13,44.64,38,74.88,37.81,104.89,37.62,129.93,62.61,130.07,92.88ZM75.23,44.06a48.9,48.9,0,1,0,48.82,48.83A49,49,0,0,0,75.23,44.06Z" transform="translate(-17.44 -1.93)"/><path d="M74.89,2c4.73,0,9.45-.05,14.17,0,3.2,0,4.15.94,4.18,4.11q.09,11.09,0,22.16c0,3.12-1,4.1-4.23,4.12q-14,.1-28,0c-3.16,0-4.13-1-4.16-4.18,0-7.38-.06-14.77,0-22.16,0-3.18.94-4,4.21-4C65.69,1.91,70.29,2,74.89,2ZM63.18,25.88H86.9V8.43C83,7.71,66,7.82,63.18,8.58Z" transform="translate(-17.44 -1.93)"/><path d="M132.56,56c0,2.68-2,4.1-4,3.29a4.4,4.4,0,0,1-1.47-1q-5.53-5.49-11-11c-.5-.5-1.16-1.18-1.15-1.77a5.9,5.9,0,0,1,.8-3.24c.76-1.07,2.09-1.08,3.28-.36a4.93,4.93,0,0,1,.87.65c3.86,3.82,7.74,7.64,11.55,11.52A7.7,7.7,0,0,1,132.56,56Z" transform="translate(-17.44 -1.93)"/><path d="M36,44.24a15.5,15.5,0,0,1-1.64,2.7c-3.71,3.82-7.44,7.62-11.26,11.33-1.69,1.63-3.54,1.6-4.81.24s-1.13-2.83.48-4.49c3.7-3.83,7.49-7.57,11.28-11.31,1-1,2.2-1.84,3.55-1.06A12.33,12.33,0,0,1,36,44.24Z" transform="translate(-17.44 -1.93)"/><path d="M74.8,95.86a2.83,2.83,0,0,1-2.45-3.94,11,11,0,0,1,1.8-2.69Q84.85,76,95.58,62.73a11.93,11.93,0,0,1,2-2.1,2.77,2.77,0,0,1,3.67,0,2.71,2.71,0,0,1,.66,3.6,11.63,11.63,0,0,1-1.44,2.07Q89.51,79.86,78.54,93.37C77.56,94.58,76.66,96,74.8,95.86Z" transform="translate(-17.44 -1.93)"/></svg>