<svg id="Layer_1" data-name="Layer 1" xmlns="http://www.w3.org/2000/svg" viewBox="0 0 79.13 147.57"><path d="M47,75c1.56-1.64,2.45-2.62,3.4-3.56L110,11.86a21.3,21.3,0,0,0,2.49-2.72,4.9,4.9,0,0,0-.56-6.7,5,5,0,0,0-6.45-.1,17.43,17.43,0,0,0-1.9,1.75q-32.65,32.7-65.3,65.42a15.7,15.7,0,0,0-1.75,1.9,5,5,0,0,0,.2,6.46c.54.66,1.2,1.24,1.8,1.85l65.26,65.46a25.57,25.57,0,0,0,2.69,2.52,5,5,0,0,0,6.74-.44c1.78-1.79,1.81-4.47,0-6.67-.7-.85-1.53-1.6-2.31-2.38Q80.82,108.14,50.75,78.09C49.71,77.05,48.47,76.21,47,75Z" transform="translate(-35.44 -1.22)"/></svg>