<svg id="Layer_1" data-name="Layer 1" xmlns="http://www.w3.org/2000/svg" viewBox="0 0 130.93 149.56"><path d="M115.15,50.22c3.23,0,5.83.07,8.42,0a3.66,3.66,0,0,1,4.12,2.91c4.1,12.91,8.28,25.8,12.42,38.7a6.62,6.62,0,0,1,.33,1.45c.18,1.78-.61,3.14-2.08,3.48A3,3,0,0,1,134.69,95a29,29,0,0,1-1.14-3.16q-5-15.44-9.89-30.89c-.46-1.41-1-2.8-1.5-4.32h-6.58c-.76,2.33-.32,4.69-.42,7-.07,1.74,0,3.49-.1,5.22-.19,2-1.37,3.13-3,3.1a3.22,3.22,0,0,1-3.12-3.13,41.59,41.59,0,0,1-.07-4.47c0-2.47,0-4.93,0-7.65H59.53c-.71,2.29-.3,4.65-.39,7-.06,1.74,0,3.49-.11,5.22-.18,2-1.38,3.13-3,3.08a3.21,3.21,0,0,1-3.1-3.15,41.59,41.59,0,0,1-.07-4.47c0-2.47,0-4.93,0-7.63h-7l-29,86.73c1.7.08,3,.19,4.3.19H92.76c1.12,0,2.25-.05,3.36,0,2.17.15,3.49,1.38,3.47,3.1s-1.32,2.85-3.56,3c-.74.07-1.49,0-2.24,0H15a20.7,20.7,0,0,1-2.23,0c-2.62-.27-3.68-1.78-3.1-4.37.16-.73.44-1.43.67-2.14Q25,99.18,39.72,55.14c.15-.47.28-1,.45-1.42,1.14-3.11,1.58-3.45,4.86-3.5,2.46,0,4.91,0,7.59,0,.08-1.62.19-2.83.19-4,0-6.35.12-12.7,0-19C52.47,11.44,63,2.42,76,.84,83,0,90.13-.22,97,1.84c8.55,2.53,14.69,7.83,17.13,16.62a36.9,36.9,0,0,1,.94,8.86c.14,6.1,0,12.2,0,18.3ZM108.83,50c0-8.4,0-16.47,0-24.54.06-10.62-7.16-16.11-14.13-17.71a50.48,50.48,0,0,0-21.09,0A14.74,14.74,0,0,0,70.1,8.9c-6.45,3-10.59,7.85-10.78,15.23-.2,8.08-.12,16.16-.14,24.24A8.87,8.87,0,0,0,59.53,50Z" transform="translate(-9.53 -0.22)"/><path d="M129.9,121.84a13.08,13.08,0,0,1,3.66,11.55,12.3,12.3,0,0,1-12.43,10.17c-6.39-.22-11.86-5.34-12.2-11.43a3.65,3.65,0,0,1,2.6-4c1.6-.36,2.91.7,3.59,2.94.18.6.23,1.23.42,1.82a6.11,6.11,0,1,0,7.62-7.67c-.93-.31-2-.35-2.88-.69a2.95,2.95,0,0,1,.33-5.59,27.82,27.82,0,0,0,2.9-.69,6.14,6.14,0,0,0,3.88-6.88,6.08,6.08,0,0,0-11.85-.63c-.22.71-.29,1.47-.52,2.17-.66,2-1.88,2.86-3.51,2.51a3.29,3.29,0,0,1-2.58-3.61,12.14,12.14,0,0,1,5.26-9.44,12.78,12.78,0,0,1,15.56.88,12.25,12.25,0,0,1,2.32,15.31C131.45,119.62,130.71,120.62,129.9,121.84Z" transform="translate(-9.53 -0.22)"/></svg>