<svg id="Layer_1" data-name="Layer 1" xmlns="http://www.w3.org/2000/svg" viewBox="0 0 130.64 148.78"><path d="M75.78,149.39c1.64-.1,4.52-.11,7.34-.5a70.78,70.78,0,0,0,9.12-1.83,65.48,65.48,0,0,0,47.42-72.47c-2.91-20.69-13.83-36.35-31.51-47.34a33.74,33.74,0,0,0-6-2.93,4.45,4.45,0,0,0-5.63,2.33A4.4,4.4,0,0,0,98,32.27c1.18.89,2.63,1.41,3.84,2.27,4.32,3.1,9.08,5.79,12.81,9.5a56.15,56.15,0,0,1,2.28,77,54.3,54.3,0,0,1-38.82,18.89C60,141,44.66,134.68,32.8,120.79,23.3,109.66,18.49,96.58,19.14,82c1-21.4,11-37.48,29.87-47.92a21.89,21.89,0,0,0,3.47-2.15,4.55,4.55,0,0,0,.91-5.47,4.47,4.47,0,0,0-4.69-2.31,10,10,0,0,0-2.41.94C18.48,38.6,5.4,68.27,10.93,96.44,16.13,123,38.74,149.28,75.78,149.39Z" transform="translate(-9.68 -0.61)"/><path d="M70.32,30.77c0,7.7,0,15.4,0,23.11a16.25,16.25,0,0,0,.32,3.69A4.45,4.45,0,0,0,75,61a4.59,4.59,0,0,0,4.37-3.4,12.25,12.25,0,0,0,.39-3.31q0-23.47,0-46.95a12.48,12.48,0,0,0-.48-3.66,4.46,4.46,0,0,0-8.46,0,12.35,12.35,0,0,0-.45,3.65C70.3,15.12,70.32,22.94,70.32,30.77Z" transform="translate(-9.68 -0.61)"/></svg>