<svg id="Layer_1" data-name="Layer 1" xmlns="http://www.w3.org/2000/svg" viewBox="0 0 79.13 147.57"><path d="M103.05,75c-1.56-1.64-2.45-2.62-3.4-3.56L40,11.86a21.3,21.3,0,0,1-2.49-2.72,4.9,4.9,0,0,1,.56-6.7,5,5,0,0,1,6.45-.1,17.43,17.43,0,0,1,1.9,1.75q32.65,32.7,65.3,65.42a15.7,15.7,0,0,1,1.75,1.9,5,5,0,0,1-.2,6.46c-.54.66-1.2,1.24-1.8,1.85L46.21,145.18a25.57,25.57,0,0,1-2.69,2.52,5,5,0,0,1-6.74-.44c-1.78-1.79-1.81-4.47,0-6.67.7-.85,1.53-1.6,2.31-2.38q30.07-30.08,60.15-60.12C100.29,77.05,101.53,76.21,103.05,75Z" transform="translate(-35.44 -1.22)"/></svg>