<svg id="Layer_1" data-name="Layer 1" xmlns="http://www.w3.org/2000/svg" viewBox="0 0 146.38 146.41"><path d="M148.19,74.93A72.82,72.82,0,0,1,74.9,148.2c-41.11-.07-73-32.63-73.09-73.13a73.19,73.19,0,1,1,146.38-.14Zm-73.1,64.28c35.5-.19,64.41-29.23,64-64.61A63.94,63.94,0,0,0,74.91,11c-35.23-.17-64,29.14-64,64.23C11,109.37,38.82,139.3,75.09,139.21Z" transform="translate(-1.81 -1.8)"/><path d="M70.22,70.67c-1.58-.12-3-.15-4.45-.34C63,70,61.4,68.25,61.42,65.81a4.4,4.4,0,0,1,4.41-4.46,84.45,84.45,0,0,1,9.14,0,4.45,4.45,0,0,1,4.48,4,20.11,20.11,0,0,1,.2,3.64q0,16.85,0,33.67v4.1c1.83.14,3.28.18,4.7.39,2.71.38,4.36,2.2,4.29,4.58a4.5,4.5,0,0,1-4.53,4.38c-6.1.14-12.2.15-18.29,0a4.34,4.34,0,0,1-4.41-4.46c0-2.45,1.56-4.14,4.35-4.51,1.42-.19,2.87-.23,4.45-.34Z" transform="translate(-1.81 -1.8)"/><path d="M75.17,33.88A9.08,9.08,0,1,1,75,52a8.74,8.74,0,0,1-9.08-9.31A9,9,0,0,1,75.17,33.88Z" transform="translate(-1.81 -1.8)"/></svg>