<svg id="Layer_1" data-name="Layer 1" xmlns="http://www.w3.org/2000/svg" viewBox="0 0 149.26 84"><path d="M38.3,68.83c0-3.67-.54-6.62.12-9.26,1.22-5,5.68-7.85,11-7.84a10.91,10.91,0,0,1,10.84,8.05,5.56,5.56,0,0,0,3.28,4.07C70,67,76.4,70.27,83,73.59c4.9-4,10.11-4.25,15.54-.82.84-.65,1.64-1.21,2.38-1.85,7.92-6.81,15.8-13.67,23.77-20.42a4.54,4.54,0,0,0,1.85-4.74c-.74-5.06,2-9.54,6.74-11.75,4.41-2.06,9.61-.9,13.24,3a11.25,11.25,0,0,1,1.73,13.13A11.12,11.12,0,0,1,136.11,56a5.47,5.47,0,0,0-5.34,1.48c-8.52,7.45-17.11,14.81-25.69,22.19a5.6,5.6,0,0,0-2.24,3.64c-.89,6-5.33,10.05-11,10.33S81.27,90,79.84,84c-.14-.59-.23-1.2-.36-1.88L58.32,71.38c-6.22,3.7-6.66,3.82-12.67,3.28L32.07,90.26c-2.45,2.81-4.85,5.67-7.37,8.42a4.7,4.7,0,0,0-1.35,4.65,11.44,11.44,0,0,1-8.59,13.33,11.73,11.73,0,0,1-13.6-7.15A11.55,11.55,0,0,1,12.21,93.75c1.24,0,2.47.21,4,.36Z" transform="translate(-0.37 -33)"/></svg>