<svg id="Layer_1" data-name="Layer 1" xmlns="http://www.w3.org/2000/svg" viewBox="0 0 150.25 139.8"><path d="M129.47,116.93c-1.62-1-3-1.79-4.37-2.69-2.45-1.66-3.15-4.24-1.83-6.49s3.8-2.91,6.53-1.59c1.34.66,2.63,1.43,4.41,2.41a59.16,59.16,0,0,0,6.12-23.41c-1.68,0-3.13,0-4.59-.13-3-.17-4.93-2-5-4.52s1.76-4.49,4.73-4.82c1.47-.16,3-.18,4.81-.28A57.6,57.6,0,0,0,134,51.67c-1.55.85-2.81,1.62-4.14,2.24-2.65,1.23-5.33.54-6.6-1.62s-.54-4.77,1.94-6.45c1.22-.84,2.51-1.59,4-2.52A64.16,64.16,0,0,0,112,26c-.89,1.41-1.63,2.66-2.44,3.88-1.72,2.59-4.46,3.37-6.79,2-2.15-1.3-2.74-3.91-1.41-6.63.61-1.23,1.35-2.39,2.27-4a59.33,59.33,0,0,0-23.71-6.49c-.15,2.16-.21,4.1-.44,6-.32,2.67-1.63,4-3.92,4.32a4.53,4.53,0,0,1-5.32-4.45c-.13-1.83,0-3.68,0-5.82a62.89,62.89,0,0,0-23.53,6.21C47.49,22.6,48.3,24,49,25.36c1.33,2.63.7,5.27-1.53,6.57s-4.9.54-6.51-1.83c-.9-1.32-1.69-2.73-2.62-4.26A64.07,64.07,0,0,0,20.94,43.09l3.84,2.47c2.86,1.86,3.67,4.18,2.32,6.61s-4,3.06-7.16,1.4c-1.19-.64-2.37-1.32-3.83-2.14A59.35,59.35,0,0,0,9.62,75.15a15.11,15.11,0,0,0,3,.28c4.1-.43,6.63,1.69,6.59,4.87,0,2.48-2,5.18-6.77,4.7a15,15,0,0,0-2.51.16c-.18,7,2.54,17.38,6.17,23.4,1.49-.79,3-1.65,4.53-2.4,2.7-1.31,5.21-.65,6.5,1.64s.6,4.81-1.88,6.48c-1.43,1-2.94,1.79-4.55,2.75A47,47,0,0,0,30,128.14c2.59,2.36,5.45,4.41,8.2,6.58.79.62,1.7,1.1,2.43,1.77a4.61,4.61,0,0,1-5.14,7.59,41,41,0,0,1-5-3.3,75.13,75.13,0,1,1,85.32,2.52,15.18,15.18,0,0,1-1.93,1.16,4.67,4.67,0,0,1-5.92-1.71,4.36,4.36,0,0,1,.75-5.81,20,20,0,0,1,2.73-2,65.79,65.79,0,0,0,15.86-14.83C128,119.16,128.67,118.12,129.47,116.93Z" transform="translate(0.13 -5.1)"/><path d="M74.14,89.66a8.54,8.54,0,0,1-7.7-5.22c-1.56-3.46-1.38-6.87,1.09-9.87s5.83-4.45,9.68-3.11a5.25,5.25,0,0,0,4.85-.75q10.53-6.17,21.11-12.23a11.11,11.11,0,0,1,3.8-1.43,4.16,4.16,0,0,1,4.55,2.58,4.4,4.4,0,0,1-1,5.18,16,16,0,0,1-3.08,2.11c-6.71,3.9-13.41,7.81-20.16,11.62a6.49,6.49,0,0,0-3.59,4.39C82.67,87.12,79,89.67,74.14,89.66Z" transform="translate(0.13 -5.1)"/></svg>